<?xml version="1.0" encoding="UTF-8" standalone="no"?>
<svg
   version="1.1"
   id="Layer_1"
   x="0px"
   y="0px"
   width="100%"
   viewBox="0 0 1024 1024"
   enable-background="new 0 0 1024 1024"
   xml:space="preserve"
   sodipodi:docname="brand.svg"
   inkscape:version="1.4.2 (ebf0e940, 2025-05-08)"
   xmlns:inkscape="http://www.inkscape.org/namespaces/inkscape"
   xmlns:sodipodi="http://sodipodi.sourceforge.net/DTD/sodipodi-0.dtd"
   xmlns="http://www.w3.org/2000/svg"
   xmlns:svg="http://www.w3.org/2000/svg"><defs
   id="defs12" /><sodipodi:namedview
   id="namedview12"
   pagecolor="#ffffff"
   bordercolor="#000000"
   borderopacity="0.25"
    />
<path
   fill="#5b21b6"
   opacity="1"
   stroke="none"
   d="m 439.03712,160.38463 c 22.90845,9.46564 44.13227,20.94218 64.36045,34.11234 6.92938,4.51156 11.97501,5.18263 19.13253,0.35516 45.47438,-30.67091 95.80152,-50.03811 149.16224,-61.50065 41.49656,-8.91397 83.44996,-12.06847 126.02266,-9.36756 41.46657,2.63073 81.54769,11.5137 121.36555,22.39659 12.29186,3.35956 16.00446,7.86794 16.3463,20.70015 0.3553,13.34098 0.45364,26.70654 0.0518,40.04289 -0.21869,7.26013 2.07752,10.12229 9.63143,9.76935 11.27109,-0.52659 22.586,-0.13144 33.88221,-0.10072 14.92943,0.0406 20.02491,4.95198 20.02751,19.64394 0.03,167.13079 0,334.26153 0.085,501.39231 0.012,13.08179 0.8824,26.16086 1.0874,39.24539 0.2609,16.64801 -6.01193,22.93481 -22.49493,22.93556 -134.78432,0.006 -269.56873,0.0417 -404.35295,-0.0852 -7.89923,-0.007 -15.04442,1.43481 -22.19997,4.86196 -26.49106,12.68758 -52.93388,12.95186 -78.83446,-1.79838 -5.2529,-2.99157 -10.73981,-2.98272 -16.38795,-2.98245 -134.52764,0.008 -269.05534,0.007 -403.583001,10e-4 -3.080187,-9e-5 -6.179938,0.15081 -9.236893,-0.13237 -9.475987,-0.87758 -15.449892,-7.22729 -15.551708,-16.73931 -0.142864,-13.34852 -0.04427,-26.69977 -0.04897,-40.0498 -0.03787,-107.31227 -0.01375,-214.62459 -0.144552,-321.93667 -0.05187,-42.53777 -0.610836,-85.07506 -0.61314,-127.61259 -0.001,-18.97905 0.70182,-37.94761 0.346411,-56.94486 -0.287186,-15.34975 6.181276,-21.05962 21.734854,-21.07461 11.039186,-0.0109 22.0903,-0.25324 33.113166,0.18423 6.593595,0.26169 9.170478,-1.76712 8.94312,-8.69147 -0.454704,-13.84857 -0.195912,-27.72284 -0.117243,-41.58584 0.06272,-11.05434 4.34919,-16.35335 15.114146,-19.12016 31.24505,-8.03065 62.43959,-16.5763 94.61486,-19.84708 31.11831,-3.16332 62.3013,-4.00381 93.62044,-0.99127 33.77822,3.24903 66.79885,9.75684 99.37713,18.97222 15.32389,4.33467 30.25141,9.7676 45.54742,15.94706 m 378.0731,0.46228 c -2.3073,-0.0924 -4.62147,-0.10024 -6.92078,-0.2898 -37.96288,-3.13032 -75.85807,-2.58105 -113.43765,3.82716 -60.78554,10.36532 -116.57128,33.75931 -168.20085,67.07976 -11.26273,7.26875 -20.76639,7.38087 -31.84273,0.0707 -19.92801,-13.15208 -40.71893,-24.96797 -62.58198,-34.62959 -67.16577,-29.68176 -137.41284,-41.58859 -210.69665,-36.42552 -30.01265,2.11447 -59.40342,7.41226 -88.6345,14.17731 -8.07143,1.86801 -10.95036,5.61424 -10.93461,14.30307 0.28651,158.14457 0.20782,316.28984 0.2075,474.43492 0,3.8508 -0.004,7.70179 0.0149,11.5525 0.0262,5.33732 2.96463,7.39472 7.96396,6.7694 24.98456,-3.12403 50.02647,-3.70102 75.19728,-2.96505 35.9412,1.05085 71.50789,4.82446 106.63449,12.45028 67.6454,14.68565 132.2006,37.32863 190.73684,75.11703 6.1119,3.94576 11.0864,2.30598 16.344,-1.01503 23.51397,-14.85272 48.84146,-25.99736 74.22038,-37.20415 76.19371,-33.64538 156.21794,-48.7292 239.0595,-50.03127 19.94213,-0.31355 39.97431,0.84824 59.84639,3.17256 5.67128,0.66339 8.34516,-1.20381 8.3792,-6.8655 0.0123,-2.05374 0.0361,-4.10746 0.0359,-6.1612 -0.0109,-158.65838 -0.022,-317.31671 -0.0356,-475.97507 -10e-4,-14.49179 -0.82058,-15.57324 -15.20632,-19.03436 -22.67034,-5.45436 -45.57913,-9.60028 -70.14873,-12.35816 M 263.4509,717.69068 c -10.95478,-1.08526 -21.88981,-2.46883 -32.86827,-3.19672 -27.1206,-1.79838 -54.24793,-2.74581 -81.37381,0.27989 -12.97048,1.44666 -25.97151,2.98565 -38.99642,3.47173 C 98.1239,718.69677 92.241339,712.2992 92.195648,700.48947 91.897991,623.53984 91.564668,546.59035 91.331737,469.64053 91.130493,403.16542 91.063247,336.6899 90.900686,270.2147 90.855212,251.62184 90.79659,251.62202 72.000084,251.65921 c -11.087325,0.022 -11.118397,0.0218 -11.117926,10.92004 0.0072,164.0136 0.02063,328.02726 0.04101,492.04086 0.0012,10.44074 0.03281,10.47308 10.806278,10.43265 64.102924,-0.24032 128.205714,-0.53195 192.308784,-0.73636 47.48252,-0.15145 94.96537,-0.17533 142.44788,-0.33075 3.68735,-0.0121 7.61327,0.80555 13.46817,-2.98047 -51.11797,-21.52332 -101.95516,-36.3563 -156.50343,-43.3145 M 935.51072,516.90055 c -0.002,18.74142 -0.008,37.48284 -0.008,56.22424 -6.6e-4,41.3326 0.052,82.6652 -0.0242,123.9976 -0.0287,15.50803 -8.13823,22.69103 -22.39196,21.02588 -14.99883,-1.75204 -30.05144,-3.61961 -45.12135,-4.06818 -32.03154,-0.95324 -64.01365,-1.08835 -96.03938,2.44918 -55.54007,6.13488 -108.53394,21.08068 -159.81254,42.76129 -1.67127,0.70655 -4.15429,0.8206 -4.33819,3.57354 2.08297,1.61703 4.46944,1.04323 6.68818,1.05508 56.72846,0.30331 113.45702,0.72027 170.18595,0.7797 54.87584,0.0574 109.75214,-0.26157 164.62826,-0.41529 17.09214,-0.0479 16.98674,-0.048 16.98166,-17.43033 -0.0318,-109.02885 -0.01,-218.05779 -0.0124,-327.0867 -10e-4,-50.06012 0.0109,-100.12024 -0.0444,-150.18033 -0.0226,-20.26422 0.17798,-17.7512 -18.12925,-17.8095 -12.27606,-0.0391 -12.49833,0.2256 -12.50218,12.5072 -0.0261,83.69207 -0.0344,167.38412 -0.0597,252.61662 z"
   id="path1"
   style="stroke-width:1.5404" />










<path
   fill="#5b21b6"
   opacity="1"
   stroke="none"
   d="m 500.44473,271.92194 c 9.50525,-6.14227 18.14976,-5.22353 27.16705,0.19207 47.70506,28.6509 95.54005,57.08521 143.30989,85.62842 8.14603,4.86741 12.28819,12.15097 12.29243,21.65513 0.0241,54.91063 -10e-4,109.82124 0.0352,164.73186 0.006,9.42754 -4.51673,16.11835 -12.35532,20.71697 -23.88769,14.01418 -47.79447,27.99709 -71.77684,41.84848 -23.76284,13.72451 -47.64677,27.23935 -71.43546,40.91938 -8.4749,4.87372 -16.88531,7.15394 -26.0394,1.53494 -44.38777,-27.24602 -90.51286,-51.46104 -135.55437,-77.56803 -3.10688,-1.80074 -6.11581,-3.77249 -9.24346,-5.53476 -8.34032,-4.69917 -12.23036,-11.44631 -12.17481,-21.35142 0.2649,-47.2107 -8.9e-4,-94.42424 0.16957,-141.6358 0.0323,-8.96107 -1.30596,-17.85566 -0.35205,-26.88113 0.86228,-8.15821 4.63797,-13.64431 11.47436,-17.90531 42.88719,-26.73124 86.67874,-51.9419 130.14522,-77.69896 4.63271,-2.74529 9.22601,-5.55715 14.33797,-8.65184 m 17.99867,124.41747 c -1.79395,-2.0668 -2.27787,-5.23121 -6.68254,-6.90093 -21.41571,36.13441 -42.93311,72.44037 -64.41548,108.68714 3.61796,2.99397 6.81942,2.08636 9.76657,2.08759 35.36873,0.0147 70.7377,-0.0236 106.10606,-0.16604 4.44772,-0.018 10.32245,1.79099 12.76082,-2.68253 2.41213,-4.42558 -2.12078,-8.58265 -4.40946,-12.42316 -17.44293,-29.26925 -35.03535,-58.44955 -53.12597,-88.60207 m -25.55134,188.76115 c 4.87085,7.23456 9.71768,14.48554 14.61923,21.69923 5.19926,7.65187 6.82737,7.70301 11.98399,0.24417 16.04488,-23.20823 32.06342,-46.43464 48.04212,-69.68842 1.51199,-2.20045 4.04297,-4.13219 2.7709,-7.80037 -1.06401,-0.3002 -2.24948,-0.92843 -3.43382,-0.92617 -34.89723,0.0666 -69.79499,0.11531 -104.69095,0.38637 -6.56351,0.051 -7.43436,2.42859 -3.39655,8.14334 11.10252,15.71375 22.28971,31.36765 34.10508,47.94185 M 587.21033,456.8963 c 4.80329,7.17952 8.1448,15.30975 13.66245,21.80791 1.95642,-0.33122 2.43479,-1.58476 2.95236,-2.7097 12.3273,-26.79323 24.63965,-53.59337 36.94231,-80.39797 2.67924,-5.83746 -1.14955,-6.41252 -5.45587,-6.88304 -26.95711,-2.94521 -53.90049,-6.0175 -80.86456,-8.89732 -3.67235,-0.39225 -7.70245,-1.06081 -11.49814,3.2715 14.47806,24.15894 29.07054,48.50873 44.26145,73.80862 m -155.37231,12.47793 c 17.27441,-29.34151 35.43574,-58.18448 52.52675,-89.70622 -7.04611,0 -11.66824,-0.43836 -16.1828,0.0731 -24.63928,2.79117 -49.26369,5.72411 -73.86828,8.80712 -9.42942,1.18157 -9.75783,1.99592 -6.0481,10.49135 10.55957,24.18221 21.12435,48.36225 31.77803,72.503 1.0743,2.43442 1.59747,5.5528 5.04714,6.27679 3.45485,-1.36185 4.50512,-4.69907 6.74726,-8.44509 M 540.67206,315.39735 c -8.22567,-3.6331 -10.8546,-2.16967 -11.45651,6.3576 -0.43286,6.13414 -0.87663,12.26747 -1.33488,18.39976 -0.3425,4.58269 0.69555,8.41548 6.01633,8.98899 21.10513,2.27496 42.22304,4.43451 63.34425,6.55599 2.12218,0.21323 4.71991,0.99829 6.08665,-2.91414 -19.8121,-13.33969 -41.28502,-24.18912 -62.65584,-37.3882 m -48.36418,32.87484 c 3.50993,-0.70095 5.40624,-2.8204 5.34672,-6.41909 -0.12289,-7.42575 0.0616,-14.88798 -0.63402,-22.26419 -0.72563,-7.69416 -3.18035,-8.66101 -9.95558,-4.7427 -19.72603,11.408 -39.45398,22.81302 -59.11408,34.33379 -2.4261,1.42173 -5.58973,2.3707 -6.9379,7.1167 23.98134,-2.62513 47.01191,-5.14623 71.29486,-8.02451 m 162.35973,119.33646 c 0,-9.55244 0,-19.10488 0,-28.65738 -12.36961,20.37635 -21.65194,41.6516 -31.15813,62.81624 -1.63206,3.63405 0.0217,6.31615 3.23508,8.39001 5.79904,3.74249 11.422,7.76078 17.26467,11.43116 2.48556,1.56132 5.0358,4.45313 8.27905,2.73504 3.25473,-1.7242 2.32367,-5.40896 2.33786,-8.37265 0.0748,-15.6006 0.0258,-31.20171 0.0415,-48.34242 M 378.4679,523.79364 c 6.26443,-3.99497 12.47585,-8.07649 18.81023,-11.95724 4.92533,-3.01756 6.34694,-6.59148 3.86876,-12.21443 -7.9539,-18.04709 -15.51067,-36.26886 -23.32734,-54.37721 -0.8354,-1.93527 -1.41414,-4.37861 -4.12111,-5.05921 -0.29611,0.83868 -0.72675,1.54434 -0.77744,2.27636 -1.80609,26.10662 -0.52095,52.24365 -0.68435,78.36683 -0.0203,3.24414 1.99215,4.55306 6.23125,2.9649 m 75.33853,64.50862 c 1.78883,0.76117 3.5719,2.31388 5.43754,0.0585 0,-0.52236 0.19153,-1.13733 -0.0275,-1.51303 -10.59318,-18.16918 -23.57752,-34.64405 -36.41167,-51.22111 -2.13844,-2.76212 -4.76062,-2.42549 -7.48122,-0.67035 -5.15884,3.32839 -10.41596,6.50579 -15.5448,9.87892 -8.0623,5.30258 -7.94054,7.92504 0.49374,12.77798 17.52163,10.08154 35.05434,20.14384 53.53391,30.68907 m 174.15604,-31.95731 c 5.81521,-3.3597 5.28392,-6.86334 0.13585,-10.30868 -4.24567,-2.84141 -8.54664,-5.60565 -12.89751,-8.28325 -8.59788,-5.29138 -10.50852,-5.06918 -16.21637,3.05931 -9.83977,14.01281 -19.43931,28.19468 -29.08898,42.34014 -1.19516,1.75195 -3.36265,3.52019 -0.11784,6.81718 18.94036,-10.93329 38.10448,-21.99567 58.1849,-33.6247 z"
   id="path12"
   style="stroke-width:1.5404" />
</svg>
