<?xml version="1.0" encoding="UTF-8" standalone="no"?>
<svg
   version="1.1"
   id="Layer_1"
   x="0px"
   y="0px"
   width="4096"
   viewBox="0 0 4096 1024"
   enable-background="new 0 0 1024 1024"
   xml:space="preserve"
   sodipodi:docname="full.svg"
   inkscape:version="1.4.2 (ebf0e940, 2025-05-08)"
   height="1024"
   xmlns:inkscape="http://www.inkscape.org/namespaces/inkscape"
   xmlns:sodipodi="http://sodipodi.sourceforge.net/DTD/sodipodi-0.dtd"
   xmlns="http://www.w3.org/2000/svg"
   xmlns:svg="http://www.w3.org/2000/svg"><defs
   id="defs12" /><sodipodi:namedview
   id="namedview12"
   pagecolor="#000000"
   bordercolor="#000000"
   borderopacity="0.25"
   inkscape:showpageshadow="2"
   inkscape:pageopacity="0.0"
   inkscape:pagecheckerboard="0"
   inkscape:deskcolor="#d1d1d1"
   inkscape:zoom="0.8125"
   inkscape:cx="2307.0769"
   inkscape:cy="561.23077"
   inkscape:window-width="3440"
   inkscape:window-height="1387"
   inkscape:window-x="3008"
   inkscape:window-y="25"
   inkscape:window-maximized="0"
   inkscape:current-layer="Layer_1" />
<path
   fill="#000000"
   opacity="1"
   stroke="none"
   d="m 564.96852,185.15091 c 25.26652,10.43999 48.67502,23.09787 70.98537,37.62369 7.64267,4.97596 13.20766,5.71612 21.10193,0.3917 50.15529,-33.828 105.66284,-55.18875 164.51625,-67.83119 45.76801,-9.83153 92.03986,-13.31073 138.99477,-10.3318 45.73496,2.90151 89.94176,12.69885 133.85826,24.70198 13.5572,3.70537 17.6519,8.67781 18.0289,22.8309 0.3919,14.71424 0.5004,29.45558 0.057,44.16471 -0.2412,8.00745 2.2913,11.16422 10.6228,10.77496 12.4313,-0.58081 24.9109,-0.14505 37.3698,-0.11109 16.4662,0.0449 22.0862,5.46171 22.0891,21.66598 0.033,184.33436 0,368.66867 0.093,553.00303 0.01,14.42837 0.9733,28.85374 1.1993,43.2851 0.2878,18.36167 -6.6307,25.29562 -24.8104,25.29644 -148.6583,0.008 -297.3167,0.0461 -445.9749,-0.094 -8.71236,-0.008 -16.59304,1.58251 -24.48513,5.36243 -29.21791,13.99358 -58.38264,14.28507 -86.94927,-1.9835 -5.79361,-3.29949 -11.84532,-3.28975 -18.07485,-3.28943 -148.37523,0.009 -296.7505,0.008 -445.12573,10e-4 -3.39725,-10e-5 -6.81609,0.16634 -10.18771,-0.14608 -10.4514,-0.9679 -17.04021,-7.97122 -17.15251,-18.46234 -0.15757,-14.72256 -0.0487,-29.44812 -0.0541,-44.17234 -0.0418,-118.35843 -0.0151,-236.71693 -0.15944,-355.07516 -0.0571,-46.91638 -0.67371,-93.83226 -0.67626,-140.74837 -0.001,-20.93265 0.77408,-41.85374 0.38208,-62.80646 -0.31675,-16.92977 6.81754,-23.22739 23.97213,-23.24393 12.1755,-0.012 24.36416,-0.27931 36.52166,0.2032 7.2723,0.28863 10.11444,-1.94902 9.86368,-9.58613 -0.5015,-15.27407 -0.21609,-30.5765 -0.12939,-45.86648 0.0692,-12.1922 4.79687,-18.03668 16.66991,-21.08829 34.46125,-8.85727 68.86682,-18.28257 104.35404,-21.89002 34.32146,-3.48893 68.71427,-4.41595 103.25723,-1.09332 37.25518,3.58348 73.67479,10.76116 109.60649,20.92514 16.90127,4.78085 33.36534,10.77302 50.23585,17.58855 m 416.98999,0.50987 c -2.54481,-0.10188 -5.09717,-0.11055 -7.63316,-0.31963 -41.87059,-3.45254 -83.66653,-2.84673 -125.11435,4.22112 -67.04249,11.43226 -128.57053,37.23432 -185.51457,73.98459 -12.42206,8.01696 -22.90397,8.14061 -35.12045,0.078 -21.97931,-14.50588 -44.91034,-27.53804 -69.02387,-38.19416 -74.07944,-32.73705 -151.55738,-45.86951 -232.38466,-40.17499 -33.10199,2.33212 -65.51811,8.17525 -97.75809,15.63666 -8.90225,2.06028 -12.0775,6.19212 -12.06015,15.77535 0.31602,174.42315 0.22923,348.84708 0.22887,523.2708 0,4.24718 -0.004,8.49457 0.0164,12.74164 0.0288,5.88673 3.26979,8.15591 8.78373,7.46622 27.55633,-3.4456 55.17593,-4.08199 82.93769,-3.27025 39.64081,1.159 78.86855,5.32105 117.61088,13.73183 74.60847,16.19732 145.80864,41.17105 210.37033,82.8492 6.741,4.35191 12.22755,2.54334 18.02634,-1.11951 25.93438,-16.38159 53.86895,-28.6734 81.86024,-41.03375 84.03671,-37.10868 172.29822,-53.74514 263.66715,-55.18124 21.9948,-0.34581 44.089,0.93556 66.0066,3.49911 6.2551,0.73169 9.2042,-1.3277 9.2417,-7.57218 0.014,-2.26515 0.04,-4.53027 0.04,-6.7954 -0.012,-174.98984 -0.024,-349.97965 -0.039,-524.9695 0,-15.98349 -0.9051,-17.17626 -16.7716,-20.99364 -25.0039,-6.0158 -50.2708,-10.58849 -77.36951,-13.63025 m -610.6506,614.16288 c -12.08239,-1.19698 -24.14301,-2.72296 -36.25156,-3.52577 -29.91225,-1.98349 -59.83191,-3.02844 -89.74999,0.30871 -14.30559,1.59557 -28.64488,3.29297 -43.01052,3.82906 -13.33282,0.49764 -19.8209,-6.55844 -19.87129,-19.58381 -0.32831,-84.87042 -0.69593,-169.7407 -0.95284,-254.61134 -0.22196,-73.31772 -0.29613,-146.63587 -0.47542,-219.95368 -0.0502,-20.50673 -0.11483,-20.50653 -20.84614,-20.46551 -12.22859,0.0242 -12.26285,0.0242 -12.26234,12.0441 0.008,180.89631 0.0227,361.79269 0.0454,542.689 10e-4,11.51545 0.0362,11.55112 11.91862,11.50653 70.70136,-0.26504 141.40256,-0.5867 212.10407,-0.81215 52.37012,-0.16705 104.74059,-0.19339 157.11071,-0.3648 4.06691,-0.0135 8.39696,0.88846 14.85452,-3.28727 -56.3798,-23.73882 -112.4499,-40.09864 -172.6131,-47.77307 M 1112.5465,578.36474 c 0,20.67056 -0.01,41.34112 -0.01,62.01167 -7e-4,45.58715 0.057,91.17433 -0.027,136.76127 -0.032,17.10436 -8.976,25.02674 -24.6969,23.19017 -16.5427,-1.93239 -33.1448,-3.99221 -49.7659,-4.48694 -35.3287,-1.05137 -70.6029,-1.20038 -105.9252,2.70129 -61.25707,6.76638 -119.70585,23.25062 -176.26282,47.16292 -1.84329,0.77928 -4.5819,0.90505 -4.78474,3.94138 2.29738,1.78348 4.92951,1.15062 7.37663,1.1637 62.56781,0.33452 125.13569,0.7944 187.70401,0.85993 60.52452,0.0633 121.04942,-0.28848 181.57422,-0.45801 18.8515,-0.0529 18.7353,-0.0529 18.7297,-19.22454 -0.035,-120.25171 -0.011,-240.50353 -0.014,-360.75531 0,-55.21305 0.012,-110.4261 -0.049,-165.63911 -0.025,-22.35012 0.1963,-19.57843 -19.9954,-19.64271 -13.5397,-0.0431 -13.7848,0.24882 -13.7891,13.79463 -0.029,92.30688 -0.038,184.61376 -0.066,278.61966 z"
   id="path1"
   style="stroke-width:1.69896;fill:#5b21b6;fill-opacity:1" />










<path
   fill="#000000"
   opacity="1"
   stroke="none"
   d="m 632.69711,308.16929 c 10.48367,-6.77452 20.01801,-5.76119 29.96349,0.21184 52.61558,31.60007 105.37444,62.96129 158.06147,94.44257 8.98453,5.36844 13.55306,13.40173 13.55774,23.8842 0.0267,60.56283 -10e-4,121.12566 0.0387,181.68851 0.008,10.39796 -4.98166,17.77749 -13.62711,22.84947 -26.34657,15.45672 -52.71421,30.87896 -79.16519,46.15613 -26.20885,15.13725 -52.55128,30.04322 -78.78865,45.13141 -9.34727,5.37541 -18.62339,7.89035 -28.71975,1.69295 -48.95677,-30.05059 -99.82973,-56.75818 -149.5076,-85.55248 -3.42668,-1.98609 -6.74531,-4.16082 -10.19491,-6.10448 -9.19883,-5.1829 -13.4893,-12.62454 -13.42802,-23.54922 0.29217,-52.07034 -9.8e-4,-104.14379 0.18702,-156.21506 0.0358,-9.88349 -1.44039,-19.69364 -0.3883,-29.64815 0.95105,-8.99795 5.11538,-15.04878 12.65549,-19.74838 47.30177,-29.4828 95.601,-57.28854 143.54169,-85.69689 5.10956,-3.02788 10.17569,-6.12917 15.81384,-9.54242 m 19.85137,137.22438 c -1.97863,-2.27956 -2.51235,-5.76971 -7.3704,-7.6113 -23.62014,39.85391 -47.35243,79.89701 -71.04608,119.87484 3.99036,3.30215 7.52139,2.30112 10.77188,2.30247 39.0094,0.0162 78.01908,-0.0262 117.02808,-0.18312 4.90554,-0.0198 11.38498,1.97535 14.07434,-2.95866 2.66042,-4.88114 -2.33907,-9.46611 -4.86334,-13.70194 -19.23842,-32.28208 -38.6417,-64.46604 -58.59448,-97.72229 m -28.1814,208.19123 c 5.37223,7.97925 10.71797,15.97661 16.12405,23.93284 5.73445,8.43951 7.53016,8.49592 13.21758,0.2693 17.69645,-25.59716 35.36387,-51.21439 52.98731,-76.86178 1.66764,-2.42694 4.45915,-4.55754 3.05612,-8.6033 -1.17351,-0.3311 -2.48102,-1.024 -3.78727,-1.0215 -38.48938,0.0733 -76.97932,0.12711 -115.4673,0.42614 -7.23911,0.0561 -8.19961,2.67856 -3.74617,8.98157 12.24537,17.33124 24.58409,34.59647 37.61568,52.87673 M 728.39392,512.18397 c 5.29771,7.91853 8.98318,16.88564 15.06879,24.0527 2.1578,-0.36531 2.68541,-1.74789 3.25626,-2.98863 13.59621,-29.55118 27.17593,-59.10999 40.74497,-88.67373 2.95503,-6.43833 -1.26789,-7.07259 -6.01748,-7.59153 -29.73193,-3.24838 -59.44873,-6.63691 -89.18833,-9.81317 -4.05037,-0.43262 -8.49529,-1.17001 -12.68171,3.60826 15.96837,26.64572 32.06291,53.50196 48.8175,81.4061 m -171.36553,13.76232 c 19.05255,-32.36177 39.0833,-64.17369 57.93358,-98.94011 -7.77139,0 -12.86929,-0.48347 -17.84857,0.0805 -27.17553,3.07847 -54.33464,6.31332 -81.4719,9.71368 -10.40003,1.3032 -10.76224,2.20135 -6.67067,11.57128 11.64652,26.67141 23.2988,53.34041 35.04911,79.96607 1.18488,2.685 1.7619,6.12439 5.56667,6.92291 3.81046,-1.50205 4.96885,-5.18278 7.44178,-9.3144 m 120.03682,-169.8265 c -9.07237,-4.00707 -11.97192,-2.39299 -12.63578,7.01203 -0.47741,6.76555 -0.96685,13.53021 -1.47228,20.29372 -0.37775,5.05441 0.76715,9.28174 6.63562,9.91428 23.27759,2.50914 46.56927,4.89098 69.86458,7.23082 2.34062,0.23518 5.20574,1.10106 6.71317,-3.2141 -21.85144,-14.71281 -45.53468,-26.679 -69.10531,-41.23675 m -53.34253,36.25882 c 3.87123,-0.77309 5.96273,-3.11073 5.89708,-7.07984 -0.1356,-8.19013 0.0681,-16.42048 -0.69927,-24.55595 -0.80033,-8.48616 -3.50772,-9.55252 -10.98038,-5.23089 -21.7565,12.58227 -43.51515,25.16126 -65.19897,37.86793 -2.67581,1.56808 -6.16508,2.61473 -7.65204,7.84926 26.44985,-2.89535 51.85107,-5.67596 78.63358,-8.85051 m 179.0722,131.62034 c 0,-10.53573 0,-21.07144 0,-31.60723 -13.64288,22.47378 -23.88068,45.93901 -34.36538,69.28222 -1.80006,4.00812 0.0239,6.9663 3.56807,9.25364 6.39597,4.1277 12.59773,8.55962 19.04181,12.60782 2.74142,1.72201 5.55417,4.9115 9.13127,3.01657 3.58975,-1.9017 2.56285,-5.96574 2.5785,-9.2345 0.0825,-17.20644 0.0284,-34.41344 0.0457,-53.31852 M 498.1645,585.96725 c 6.90928,-4.4062 13.76005,-8.90785 20.74647,-13.18805 5.43233,-3.32818 7.00026,-7.26999 4.26699,-13.47172 -8.77262,-19.90477 -17.10724,-40.00219 -25.72854,-59.97453 -0.92138,-2.13447 -1.55968,-4.82932 -4.54532,-5.57998 -0.32659,0.92504 -0.80155,1.70331 -0.85745,2.51069 -1.99199,28.7939 -0.57458,57.62134 -0.7548,86.4335 -0.0224,3.57807 2.19722,5.02173 6.87265,3.27009 m 83.09352,71.14881 c 1.97295,0.83951 3.93955,2.55206 5.99725,0.0645 0,-0.57612 0.21122,-1.2544 -0.0304,-1.66876 -11.68357,-20.03942 -26.00446,-38.21011 -40.15969,-56.49355 -2.35857,-3.04642 -5.25066,-2.67515 -8.2513,-0.73935 -5.68985,3.67099 -11.48813,7.17545 -17.1449,10.89582 -8.8922,5.8484 -8.75791,8.7408 0.54456,14.09327 19.3252,11.11927 38.66264,22.21733 59.04442,33.84804 m 192.08278,-35.2468 c 6.41381,-3.70553 5.82782,-7.56981 0.14984,-11.36981 -4.68269,-3.13389 -9.42638,-6.18267 -14.22511,-9.13588 -9.4829,-5.83605 -11.59022,-5.59098 -17.8856,3.37421 -10.85261,15.45524 -21.4403,31.09689 -32.08324,46.69842 -1.31819,1.93229 -3.7088,3.88254 -0.13005,7.51891 20.88998,-12.05872 42.02677,-24.25979 64.17416,-37.08585 z"
   id="path12"
   style="stroke-width:1.69896;fill:#5b21b6;fill-opacity:1" />
<path
   style="font-size:135.865px;font-family:'American Typewriter';-inkscape-font-specification:'American Typewriter';text-align:center;text-anchor:middle;fill:#5b21b6;stroke-width:0.70763;fill-opacity:1"
   d="m 2479.1943,85.335392 q 13.3148,0 21.7384,8.559495 v -1.90211 q 0,-5.298735 4.2118,-5.298735 4.6195,0 4.6195,5.842195 v 0.81519 q 0,0.27173 -0.4076,4.07595 -0.4076,3.804223 -0.4076,9.102953 0,0.67933 0.2717,4.34768 l 0.4076,5.4346 q 0.1359,0.67933 0.1359,1.90211 0,6.52152 -5.027,6.52152 -5.2988,0 -5.2988,-5.4346 0,-0.67932 0,-0.67932 l 0.2717,-3.66836 q 0.1359,-1.90211 0.1359,-2.98903 0,-8.1519 -5.5705,-12.771308 -5.4346,-4.61941 -15.081,-4.61941 -8.8312,0 -14.1299,4.34768 -5.1629,4.347678 -5.1629,11.684388 0,8.5595 7.7443,12.63545 4.3477,2.17384 15.2169,3.94008 16.1679,2.58144 22.146,7.06498 8.9671,6.65739 8.9671,18.88524 0,12.77131 -9.2388,20.78735 -9.103,8.01603 -23.6406,8.01603 -15.4886,0 -25.6784,-9.78228 0,0.54346 0.1358,1.22279 0,0.67932 0,0.81519 0.2718,2.17384 0.2718,2.85316 0,5.02701 -4.7553,5.02701 -5.1629,0 -5.1629,-5.70633 0,-0.67933 0.1359,-1.08692 l 0.5434,-7.06498 q 0.4076,-5.29874 0.4076,-6.79326 0,-2.7173 -0.6793,-8.1519 -0.6793,-5.4346 -0.6793,-8.1519 0,-6.11392 5.1628,-6.11392 5.2988,0 5.2988,6.11392 v 2.44557 q -0.1359,1.08692 -0.1359,3.1249 0,10.18987 6.5215,16.16794 6.5216,5.97806 17.6625,5.97806 10.3257,0 16.4397,-4.89114 6.1139,-4.89115 6.1139,-13.31478 0,-12.90717 -16.3038,-15.76034 l -7.7443,-1.35865 q -11.5486,-2.03797 -17.9342,-4.75527 -5.8422,-2.58144 -9.3747,-8.01604 -3.3966,-5.57046 -3.3966,-12.49958 0,-11.95612 8.6953,-19.428693 8.6954,-7.472575 22.5536,-7.472575 z m 83.4212,74.861618 0.2717,-8.69536 q 0.1359,-5.57047 4.8912,-5.57047 4.7552,0 4.7552,6.24979 0,14.80929 -3.8042,20.65149 -5.1628,7.88017 -16.9831,7.88017 -10.8692,0 -15.4886,-6.92912 -3.3966,-5.027 -3.3966,-17.11899 v -32.6076 q 0,-2.85317 -2.5815,-2.85317 h -4.3477 q -2.1738,0 -3.6683,-1.35865 -1.3587,-1.49451 -1.3587,-3.53249 0,-1.90211 1.3587,-3.39662 1.4945,-1.49452 3.2607,-1.49452 h 5.2988 q 2.3097,0 2.3097,-2.58143 V 94.845942 q 0,-5.16287 5.2987,-5.16287 4.8912,0 4.8912,5.16287 V 109.3835 q 0,2.03797 2.4455,2.03797 h 14.8093 q 5.1629,0 5.1629,4.75528 0,5.027 -5.5705,5.027 h -14.9451 q -1.9021,0 -1.9021,2.85317 v 33.42279 q 0,14.26583 9.3747,14.26583 9.5105,0 9.9181,-11.54853 z m 48.232,21.05908 q -14.2658,0 -22.8253,-9.78228 -8.5595,-9.91815 -8.5595,-26.49368 0,-16.57553 8.5595,-26.35781 8.6954,-9.91815 23.2329,-9.91815 14.8093,0 23.3688,9.64642 8.5595,9.64641 8.5595,26.22194 0,16.57553 -8.8312,26.62955 -8.8313,10.05401 -23.5047,10.05401 z m 0.6793,-63.58483 q -9.5105,0 -14.9451,6.65739 -5.4346,6.65738 -5.9781,18.88523 0,0 0,1.76625 0,12.77131 5.2988,20.10802 5.4346,7.20085 15.081,7.20085 9.9181,0 15.4886,-7.20085 5.7063,-7.33671 5.7063,-20.24389 0,-27.173 -20.6515,-27.173 z m 62.7696,-2.7173 v 3.66836 q 7.065,-9.91815 18.8853,-9.91815 9.5105,0 15.3527,5.4346 5.9781,5.29874 5.9781,13.72237 0,5.97806 -2.9891,9.78228 -2.989,3.66835 -7.8801,3.66835 -3.1249,0 -5.2988,-1.90211 -2.1738,-1.90211 -2.1738,-4.61941 0,-2.17384 1.6304,-3.80422 1.6303,-1.76624 3.8042,-1.76624 0.4076,0 1.7662,0.40759 0.8152,-1.63038 0.8152,-2.98903 0,-3.94008 -3.5325,-6.65738 -3.3966,-2.7173 -8.5595,-2.7173 -10.5974,0 -14.1299,9.51055 -2.1739,5.84219 -2.1739,17.66245 v 8.96709 q 0,9.10295 0.1359,10.18987 0.6793,7.74431 4.2118,7.74431 1.7663,0 3.6684,-0.54346 1.4945,-0.40759 2.5814,-0.40759 4.3477,0 4.3477,4.34768 0,4.75527 -5.5705,4.75527 h -0.5434 q -2.038,0 -6.2498,-0.54346 -4.076,-0.40759 -6.114,-0.40759 -5.4346,0 -8.5595,0.27173 l -7.6084,0.67932 q -5.5705,0 -5.5705,-4.75527 0,-4.21182 5.1629,-4.21182 1.3587,0 2.038,0.13587 l 2.038,0.40759 q 1.3586,0.27173 1.9021,0.27173 3.3966,0 3.6683,-6.24979 l 0.2718,-6.92912 -0.4076,-30.84135 q -0.4076,-8.01604 -4.076,-8.01604 -1.0869,0 -2.989,0.4076 -1.9021,0.40759 -2.989,0.40759 -4.4836,0 -4.4836,-4.34768 0,-4.75527 5.8422,-4.75527 1.3587,0 4.076,0.40759 2.7173,0.27173 4.0759,0.27173 1.0869,0 3.5325,-0.27173 1.0869,-0.27173 2.5814,-0.27173 3.5325,0 3.5325,3.80422 z m 70.9214,9.10296 15.6245,45.92237 16.5755,-45.24305 q 0.6793,-1.90211 0.6793,-2.98903 0,-2.3097 -3.1249,-2.3097 -1.6303,0 -2.5814,0.27173 -2.1738,0.27173 -2.8532,0.27173 -4.4835,0 -4.4835,-4.34768 0,-4.61941 5.8422,-4.61941 0.8152,0 2.7173,0.27173 l 4.8911,0.67932 q 1.9021,0.27173 4.076,0.27173 2.3097,0 6.7932,-0.54346 4.4836,-0.54346 6.7933,-0.54346 5.8422,0 5.8422,4.48355 0,4.34768 -4.4836,4.34768 -1.3586,0 -2.0379,-0.27173 -1.7663,-0.4076 -2.4456,-0.4076 -2.5814,0 -5.2987,6.92912 l -18.4777,46.1941 q -6.1139,15.35275 -11.5485,22.28186 -9.2388,11.82026 -23.0971,11.82026 -8.2877,0 -13.9941,-4.21182 -5.5704,-4.21181 -5.5704,-10.18987 0,-4.21182 2.4455,-6.92912 2.4456,-2.58143 6.3857,-2.58143 3.1249,0 5.1629,1.76624 2.0379,1.90211 2.0379,4.61941 0,4.34768 -3.94,5.57047 2.0379,2.98903 7.7443,2.98903 7.2008,0 12.9071,-5.4346 5.8422,-5.29874 5.8422,-11.95612 0,-3.39663 -3.6683,-12.63545 l -14.9452,-37.77047 q 0,0 -1.6303,-4.34768 -2.3098,-6.11393 -5.2988,-6.11393 -0.8152,0 -2.989,0.4076 -2.038,0.40759 -2.7173,0.40759 -4.7553,0 -4.7553,-4.34768 0,-4.61941 6.2498,-4.61941 2.038,0 3.1249,0.13587 l 5.4346,0.67932 q 0.1359,0 1.0869,0 0.9511,0.13587 1.6304,0.13587 4.8911,0 10.4616,-0.54346 4.2118,-0.4076 5.5705,-0.4076 5.7063,0 5.7063,4.48355 0,4.48354 -5.1629,4.48354 -0.8152,0 -2.5814,-0.27173 -1.7663,-0.40759 -2.5814,-0.40759 -1.9022,0 -1.9022,1.90211 0,1.08692 0.5435,2.7173 z m 109.0996,15.35274 V 127.997 l -0.1359,-21.60253 q 0,-10.054013 -6.9291,-10.054013 -1.7662,0 -2.7173,0.27173 -2.1738,0.407595 -3.5325,0.407595 -1.7662,0 -2.989,-1.222785 -1.2228,-1.35865 -1.2228,-3.26076 0,-4.755275 5.7063,-4.755275 0.6794,0 2.038,0.135865 l 9.3747,0.951055 q 5.2987,0.54346 11.8202,0.54346 3.5325,0 15.2169,-0.407595 l 15.6245,-0.54346 q 3.1249,-0.135865 7.3367,-0.407595 1.9021,-0.135865 4.076,-0.135865 7.2008,0 7.2008,6.385655 0,2.44557 -0.6793,7.472578 -0.6793,5.027 -0.6793,7.60844 0,2.17384 0.2717,5.4346 0.2717,3.26076 0.2717,5.97806 0,5.57046 -4.8911,5.57046 -5.027,0 -5.027,-6.38565 0,-1.90211 0.1358,-5.8422 0.2718,-3.94008 0.2718,-5.84219 0,-7.20085 -4.076,-9.102958 -4.0759,-1.90211 -19.2928,-1.90211 -12.9072,0 -14.6734,2.309705 -1.3587,1.766243 -1.3587,12.499583 v 10.05401 q 0,3.80422 0.9511,4.75527 1.0869,0.81519 5.7063,0.81519 h 4.4835 q 8.8313,0 8.8313,-6.52152 0,-1.49451 -0.4076,-4.07595 -0.2718,-2.58143 -0.2718,-3.94008 0,-5.16287 4.8912,-5.16287 4.6194,0 4.6194,5.97806 0,0.81519 -0.2717,3.26076 l -0.8152,7.33671 q -0.5435,4.89114 -0.5435,7.33671 0,5.57046 1.2228,14.12996 0.4076,2.85316 0.4076,5.4346 0,5.29873 -4.8911,5.29873 -4.6195,0 -4.6195,-5.70633 0,-1.35865 0.1359,-4.07595 0.2717,-2.7173 0.2717,-4.07595 0,-4.21181 -2.3097,-5.4346 -1.4945,-0.95105 -6.2498,-0.95105 h -4.2118 q -4.7552,0 -5.8422,1.08692 -1.0869,1.08692 -1.0869,5.97806 v 16.16793 q 0,6.38566 1.3587,8.69537 1.4945,2.17384 5.4346,2.17384 0.951,0 2.989,-0.13587 2.038,-0.13586 2.989,-0.13586 6.2498,0 6.2498,4.61941 0,1.90211 -1.4945,3.26076 -1.3587,1.35865 -3.3966,1.35865 -2.1739,0 -6.3857,-0.67933 -5.978,-0.95105 -13.5865,-0.95105 -4.8911,0 -10.4616,0.81519 l -4.6194,0.67932 q -0.4076,0 -0.9511,0.13587 -0.5434,0 -0.8151,0 -5.9781,0 -5.9781,-4.89114 0,-4.34768 4.2118,-4.34768 0.5435,0 3.5325,0.27173 1.4945,0.40759 2.8532,0.40759 3.6683,0 5.027,-2.17384 1.4945,-2.3097 1.6304,-8.01604 z m 93.0675,0.13587 v 17.66245 q 0,6.79325 0.1359,8.01604 0.6793,6.11392 3.6683,6.11392 0.6793,0 3.3966,-0.67932 0.6794,-0.27173 2.038,-0.27173 5.1629,0 5.1629,4.48354 0,1.90211 -1.7663,3.26076 -1.6303,1.35865 -4.2118,1.35865 -2.1738,0 -6.6574,-0.54346 -4.3476,-0.67932 -6.5215,-0.67932 -3.5325,0 -7.8801,0.54346 -5.2988,0.67932 -7.065,0.67932 -5.4346,0 -5.4346,-4.61941 0,-4.48354 4.6194,-4.48354 1.0869,0 3.1249,0.40759 2.1738,0.4076 3.2607,0.4076 3.2608,0 3.9401,-8.69537 0,-0.54346 0,-11.82025 v -11.14093 q 0,-11.2768 0,-11.82026 -0.6793,-8.55949 -4.0759,-8.55949 -1.0869,0 -3.1249,0.54346 -1.9021,0.40759 -2.8532,0.40759 -4.8911,0 -4.8911,-4.34768 0,-4.61941 5.978,-4.61941 2.5815,0 3.6684,0.13587 4.3477,0.54346 5.5705,0.54346 1.0869,0 3.2607,-0.27173 2.3097,-0.4076 3.3966,-0.4076 3.9401,0 3.9401,5.29874 0,0.54346 -0.1358,1.63038 -0.1359,1.08692 -0.1359,1.63038 -0.1359,1.08692 -0.2717,8.42363 -0.1359,5.57046 -0.1359,11.41266 z m -7.065,-35.59663 q -3.1249,0 -5.4346,-2.17384 -2.1738,-2.309708 -2.1738,-5.434603 0,-3.124895 2.1738,-5.298735 2.3097,-2.17384 5.4346,-2.17384 3.1249,0 5.2988,2.17384 2.3097,2.17384 2.3097,5.298735 0,3.124895 -2.3097,5.434603 -2.1739,2.17384 -5.2988,2.17384 z m 47.6886,11.00506 v 3.66836 q 7.0649,-9.91815 18.8852,-9.91815 9.5105,0 15.3527,5.4346 5.9781,5.29874 5.9781,13.72237 0,5.97806 -2.989,9.78228 -2.9891,3.66835 -7.8802,3.66835 -3.1249,0 -5.2987,-1.90211 -2.1739,-1.90211 -2.1739,-4.61941 0,-2.17384 1.6304,-3.80422 1.6304,-1.76624 3.8042,-1.76624 0.4076,0 1.7663,0.40759 0.8152,-1.63038 0.8152,-2.98903 0,-3.94008 -3.5325,-6.65738 -3.3967,-2.7173 -8.5595,-2.7173 -10.5975,0 -14.13,9.51055 -2.1738,5.84219 -2.1738,17.66245 v 8.96709 q 0,9.10295 0.1358,10.18987 0.6794,7.74431 4.2118,7.74431 1.7663,0 3.6684,-0.54346 1.4945,-0.40759 2.5814,-0.40759 4.3477,0 4.3477,4.34768 0,4.75527 -5.5704,4.75527 h -0.5435 q -2.038,0 -6.2498,-0.54346 -4.0759,-0.40759 -6.1139,-0.40759 -5.4346,0 -8.5595,0.27173 l -7.6085,0.67932 q -5.5704,0 -5.5704,-4.75527 0,-4.21182 5.1628,-4.21182 1.3587,0 2.038,0.13587 l 2.038,0.40759 q 1.3586,0.27173 1.9021,0.27173 3.3966,0 3.6684,-6.24979 l 0.2717,-6.92912 -0.4076,-30.84135 q -0.4076,-8.01604 -4.076,-8.01604 -1.0869,0 -2.989,0.4076 -1.9021,0.40759 -2.989,0.40759 -4.4836,0 -4.4836,-4.34768 0,-4.75527 5.8422,-4.75527 1.3587,0 4.076,0.40759 2.7173,0.27173 4.0759,0.27173 1.087,0 3.5325,-0.27173 1.0869,-0.27173 2.5815,-0.27173 3.5325,0 3.5325,3.80422 z m 74.8614,-6.24979 q 9.103,0 15.2169,4.75528 v -0.54346 q 0,-5.02701 4.3477,-5.02701 4.4836,0 4.4836,4.34768 0,0.81519 -0.2718,4.07595 -0.5434,2.7173 -0.5434,5.4346 0,1.63038 0.4076,4.75528 0.5434,3.12489 0.5434,4.75527 0,5.16287 -4.4835,5.16287 -4.3477,0 -4.4836,-4.34768 l -0.1358,-4.48354 q -0.1359,-4.07595 -4.7553,-6.92912 -4.4836,-2.98903 -10.5975,-2.98903 -6.2498,0 -10.4616,3.26076 -4.2118,3.1249 -4.2118,7.88017 0,8.69536 11.9561,10.32574 l 7.8802,1.08692 q 23.097,3.1249 23.097,19.15697 0,9.78228 -7.4725,15.89621 -7.4726,5.97806 -19.5646,5.97806 -11.2768,0 -19.5646,-6.38566 0.1359,1.35865 0.1359,2.58144 0,4.89114 -4.6194,4.89114 -5.027,0 -5.027,-5.57047 0,0.95106 0.8152,-7.06498 0.2717,-1.90211 0.2717,-3.80422 0,-3.26076 -0.5434,-6.11393 -0.5435,-2.85316 -0.5435,-4.48354 0,-4.75528 4.3477,-4.75528 2.8531,0 3.5325,1.35865 0.8152,1.35865 0.951,7.20085 0.1359,5.8422 6.1139,9.51055 5.9781,3.66836 15.2169,3.66836 6.6574,0 11.0051,-3.39663 4.3477,-3.39662 4.3477,-8.5595 0,-9.23882 -14.6735,-10.73333 -13.994,-1.49452 -21.3308,-5.4346 -7.3367,-4.07595 -7.3367,-14.12996 0,-9.51055 7.2009,-15.35275 7.2008,-5.97806 18.7493,-5.97806 z m 75.5411,51.49284 0.2717,-8.69536 q 0.1359,-5.57047 4.8912,-5.57047 4.7553,0 4.7553,6.24979 0,14.80929 -3.8043,20.65149 -5.1628,7.88017 -16.9831,7.88017 -10.8692,0 -15.4886,-6.92912 -3.3966,-5.027 -3.3966,-17.11899 v -32.6076 q 0,-2.85317 -2.5815,-2.85317 h -4.3476 q -2.1739,0 -3.6684,-1.35865 -1.3586,-1.49451 -1.3586,-3.53249 0,-1.90211 1.3586,-3.39662 1.4945,-1.49452 3.2608,-1.49452 h 5.2987 q 2.3097,0 2.3097,-2.58143 V 94.845942 q 0,-5.16287 5.2987,-5.16287 4.8912,0 4.8912,5.16287 V 109.3835 q 0,2.03797 2.4456,2.03797 h 14.8092 q 5.1629,0 5.1629,4.75528 0,5.027 -5.5705,5.027 h -14.9451 q -1.9021,0 -1.9021,2.85317 v 33.42279 q 0,14.26583 9.3747,14.26583 9.5105,0 9.9181,-11.54853 z"
   id="text1"
   aria-label="Story First" /><path
   style="font-size:777.194px;font-family:'American Typewriter';-inkscape-font-specification:'American Typewriter';text-align:center;text-anchor:middle;fill:#5b21b6;stroke-width:4.04788;fill-opacity:1"
   d="m 1850.9667,264.53777 q 76.165,0 124.3511,48.96322 v -10.88072 q 0,-30.31056 24.093,-30.31056 26.4246,0 26.4246,33.41934 v 4.66316 q 0,1.55439 -2.3316,23.31582 -2.3316,21.76143 -2.3316,52.072 0,3.88597 1.5544,24.87021 l 2.3316,31.08775 q 0.7772,3.88597 0.7772,10.88072 0,37.30531 -28.7562,37.30531 -30.3106,0 -30.3106,-31.08776 0,-3.88597 0,-3.88597 l 1.5544,-20.98424 q 0.7772,-10.88071 0.7772,-17.09826 0,-46.63164 -31.8649,-73.05624 -31.0878,-26.42459 -86.2686,-26.42459 -50.5176,0 -80.8281,24.87021 -29.5334,24.8702 -29.5334,66.83868 0,48.96322 44.3,72.27904 24.8702,12.4351 87.0458,22.53862 92.486,14.76669 126.6826,40.41409 51.2948,38.0825 51.2948,108.02996 0,73.05623 -52.8492,118.91068 -52.072,45.85444 -135.2318,45.85444 -88.6001,0 -146.8896,-55.95796 0,3.10877 0.7772,6.99474 0,3.88597 0,4.66317 1.5544,12.4351 1.5544,16.32107 0,28.75618 -27.2018,28.75618 -29.5334,0 -29.5334,-32.64215 0,-3.88597 0.7772,-6.21755 l 3.1088,-40.41409 q 2.3316,-30.31056 2.3316,-38.8597 0,-15.54388 -3.886,-46.63164 -3.886,-31.08776 -3.886,-46.63163 0,-34.97373 29.5334,-34.97373 30.3106,0 30.3106,34.97373 v 13.98949 q -0.7772,6.21755 -0.7772,17.87546 0,58.28955 37.3053,92.48608 37.3053,34.19654 101.0352,34.19654 59.0667,0 94.0405,-27.97899 34.9737,-27.97898 34.9737,-76.16501 0,-73.83342 -93.2633,-90.1545 l -44.3,-7.77194 q -66.0615,-11.65791 -102.5897,-27.20179 -33.4193,-14.76668 -53.6263,-45.85444 -19.4299,-31.86495 -19.4299,-71.50185 0,-68.39306 49.7404,-111.13873 49.7404,-42.74567 129.0142,-42.74567 z m 498.9582,279.01263 q 0,-31.08775 38.8597,-35.75092 -3.886,-27.20179 -26.4246,-42.74567 -21.7615,-15.54388 -56.7352,-15.54388 -53.6264,0 -86.2685,42.74567 -32.6422,42.74567 -32.6422,113.47032 0,73.05623 30.3106,115.02471 31.0877,41.19128 85.4913,41.19128 34.1966,0 59.0668,-19.42985 25.6474,-19.42985 34.9737,-53.62638 7.7719,-27.20179 9.3263,-31.08776 8.5492,-15.54388 24.8702,-15.54388 13.2123,0 21.7615,8.54913 8.5491,8.54914 8.5491,21.76143 0,19.42985 -12.4351,46.63164 -12.4351,27.20179 -29.5334,45.07725 -45.8544,48.96322 -118.9107,48.96322 -79.2737,0 -128.237,-55.95796 -48.186,-55.95797 -48.186,-146.88966 0,-96.37206 49.7404,-153.88441 50.5176,-58.28955 133.6774,-58.28955 62.1755,0 103.3668,34.19654 41.1913,33.41934 41.1913,85.49133 0,28.75618 -16.3211,47.40884 -15.5439,18.65265 -40.4141,18.65265 -19.4298,0 -32.6421,-11.65791 -12.4351,-11.65791 -12.4351,-28.75618 z m 287.5619,-109.58435 v 20.98424 q 40.4141,-56.73516 108.03,-56.73516 54.4036,0 87.8229,31.08776 34.1965,30.31057 34.1965,78.49659 0,34.19654 -17.0982,55.95797 -17.0983,20.98423 -45.0773,20.98423 -17.8755,0 -30.3106,-10.88071 -12.4351,-10.88072 -12.4351,-26.4246 0,-12.4351 9.3264,-21.76143 9.3263,-10.10352 21.7614,-10.10352 2.3316,0 10.1035,2.33158 4.6632,-9.32632 4.6632,-17.09826 0,-22.53863 -20.2071,-38.08251 -19.4298,-15.54388 -48.9632,-15.54388 -60.6211,0 -80.8281,54.40358 -12.4352,33.41934 -12.4352,101.03522 v 51.2948 q 0,52.07199 0.7772,58.28955 3.886,44.30005 24.0931,44.30005 10.1035,0 20.9842,-3.10877 8.5491,-2.33159 14.7667,-2.33159 24.8702,0 24.8702,24.87021 0,27.20179 -31.865,27.20179 h -3.1087 q -11.658,0 -35.751,-3.10878 -23.3158,-2.33158 -34.9737,-2.33158 -31.0878,0 -48.9632,1.55439 l -43.5229,3.88597 q -31.8649,0 -31.8649,-27.20179 0,-24.09301 29.5333,-24.09301 7.772,0 11.6579,0.77719 l 11.658,2.33158 q 7.7719,1.55439 10.8807,1.55439 19.4298,0 20.9842,-35.75092 l 1.5544,-39.63689 -2.3316,-176.42303 q -2.3316,-45.85445 -23.3158,-45.85445 -6.2176,0 -17.0983,2.33158 -10.8807,2.33159 -17.0982,2.33159 -25.6474,0 -25.6474,-24.87021 0,-27.20179 33.4193,-27.20179 7.7719,0 23.3158,2.33158 15.5439,1.55439 23.3158,1.55439 6.2176,0 20.2071,-1.55439 6.2175,-1.55439 14.7667,-1.55439 20.207,0 20.207,21.76143 z m 390.1508,140.67211 v 101.03522 q 0,38.8597 0.7772,45.85444 3.886,34.97373 20.9843,34.97373 3.8859,0 19.4298,-3.88597 3.886,-1.55439 11.6579,-1.55439 29.5334,0 29.5334,25.6474 0,10.88072 -10.1035,18.65266 -9.3264,7.77194 -24.093,7.77194 -12.4351,0 -38.0825,-3.10878 -24.8703,-3.88597 -37.3054,-3.88597 -20.207,0 -45.0772,3.10878 -30.3106,3.88597 -40.4141,3.88597 -31.0878,0 -31.0878,-26.4246 0,-25.6474 26.4246,-25.6474 6.2176,0 17.8755,2.33159 12.4351,2.33158 18.6527,2.33158 18.6526,0 22.5386,-49.74042 0,-3.10877 0,-67.61587 v -63.72991 q 0,-64.5071 0,-67.61587 -3.886,-48.96322 -23.3158,-48.96322 -6.2176,0 -17.8755,3.10877 -10.8807,2.33159 -16.3211,2.33159 -27.979,0 -27.979,-24.87021 0,-26.4246 34.1966,-26.4246 14.7667,0 20.9842,0.7772 24.8702,3.10877 31.865,3.10877 6.2175,0 18.6526,-1.55438 13.2123,-2.33159 19.4299,-2.33159 22.5386,0 22.5386,30.31057 0,3.10877 -0.7772,9.32633 -0.7772,6.21755 -0.7772,9.32632 -0.7772,6.21756 -1.5544,48.18603 -0.7772,31.86495 -0.7772,65.28429 z m -40.4141,-203.62482 q -17.8754,0 -31.0877,-12.4351 -12.4351,-13.2123 -12.4351,-31.08776 0,-17.87546 12.4351,-30.31056 13.2123,-12.43511 31.0877,-12.43511 17.8755,0 30.3106,12.43511 13.2123,12.4351 13.2123,30.31056 0,17.87546 -13.2123,31.08776 -12.4351,12.4351 -30.3106,12.4351 z m 256.4736,-66.83868 q -6.2175,64.5071 -6.9947,153.10721 24.8702,-32.64214 50.5176,-45.85444 25.6474,-13.2123 64.5071,-13.2123 77.7194,0 123.5738,54.40358 45.8545,54.40358 45.8545,144.55808 0,98.70363 -48.9633,157.77037 -48.186,58.28955 -130.5685,58.28955 -80.051,0 -115.8019,-59.84393 3.1087,22.53862 3.1087,24.8702 0,27.97899 -27.2018,27.97899 -27.2018,0 -27.2018,-38.8597 0,-10.88072 0.7772,-16.32108 0,-17.87546 0.7772,-38.0825 l 2.3316,-59.84394 1.5544,-78.49659 -1.5544,-207.51079 q -0.7772,-28.75617 -6.2175,-38.8597 -4.6632,-10.10352 -17.0983,-10.10352 -2.3316,0 -20.207,3.10878 -8.5492,1.55439 -14.7667,1.55439 -26.4246,0 -26.4246,-24.87021 0,-25.6474 31.0877,-25.6474 9.3264,0 15.5439,0.77719 l 18.6527,2.33158 q 12.4351,1.55439 20.207,1.55439 8.5491,0 24.093,-2.33158 15.5439,-3.10878 23.3158,-3.10878 17.0983,0 17.0983,21.76144 z m -0.7772,225.38625 q -5.4403,24.87021 -5.4403,69.94746 0,76.9422 12.4351,105.69838 24.093,56.73516 91.7089,56.73516 53.6263,0 84.7141,-41.96847 31.8649,-42.74567 31.8649,-114.24752 0,-73.05623 -30.3105,-114.24751 -29.5334,-41.96848 -81.6054,-41.96848 -36.5281,0 -66.0615,23.31582 -29.5333,22.53863 -37.3053,56.73516 z m 690.9247,41.96848 q 0,29.53337 -3.8859,36.52811 -3.886,6.21756 -22.5387,6.21756 h -247.1476 q -10.1036,0 -13.2123,3.10877 -3.1088,2.33158 -3.1088,8.54913 0,58.28955 34.9737,97.14925 34.9737,38.8597 87.0457,38.8597 34.1966,0 62.1755,-18.65266 28.7562,-18.65265 37.3054,-47.40883 l 6.9947,-22.53862 q 5.4404,-18.65266 25.6474,-18.65266 28.7562,0 28.7562,29.53337 0,50.51761 -51.2948,90.1545 -51.2948,38.8597 -116.5791,38.8597 -81.6054,0 -129.7914,-54.40358 -48.186,-55.18077 -48.186,-147.66685 0,-94.81766 51.2948,-153.88441 51.2948,-59.06674 133.6773,-59.06674 73.0563,0 120.4651,48.96322 47.4088,48.96322 47.4088,124.35104 z m -282.1214,-20.20705 q 0,10.88072 17.0983,10.88072 h 185.7493 q 16.3211,0 16.3211,-10.88072 0,-41.19128 -31.0877,-71.50184 -31.0878,-30.31057 -73.0563,-30.31057 -43.5228,0 -79.2738,31.86496 -35.7509,31.08776 -35.7509,69.94745 z"
   id="text1-0"
   aria-label="Scribe" /></svg>
