<?xml version="1.0" encoding="UTF-8" standalone="no"?>
<svg
   version="1.1"
   id="Layer_1"
   x="0px"
   y="0px"
   width="100%"
   viewBox="0 0 1024 1024"
   enable-background="new 0 0 1024 1024"
   xml:space="preserve"
   sodipodi:docname="logo.svg"
   inkscape:version="1.4.2 (ebf0e940, 2025-05-08)"
   xmlns:inkscape="http://www.inkscape.org/namespaces/inkscape"
   xmlns:sodipodi="http://sodipodi.sourceforge.net/DTD/sodipodi-0.dtd"
   xmlns="http://www.w3.org/2000/svg"
   xmlns:svg="http://www.w3.org/2000/svg"><defs
   id="defs12" /><sodipodi:namedview
   id="namedview12"
   pagecolor="#ffffff"
   bordercolor="#000000"
   borderopacity="0.25"/>
<path
   fill="#5b21b6"
   opacity="1"
   stroke="none"
   d="m 450.80913,174.81294 c 18.92344,7.81907 36.45532,17.29923 53.16473,28.17839 5.724,3.72676 9.89192,4.28111 15.80436,0.29337 37.56397,-25.3356 79.13654,-41.3338 123.215,-50.8024 34.2781,-7.36336 68.93356,-9.96912 104.1006,-7.73804 34.25333,2.1731 67.3622,9.51085 100.25362,18.50063 10.15365,2.77515 13.22043,6.49928 13.50281,17.09928 0.2935,11.02028 0.37472,22.06086 0.0427,33.07731 -0.18065,5.99721 1.71612,8.36148 7.95599,8.06994 9.31046,-0.435 18.65711,-0.10863 27.98829,-0.0832 12.33242,0.0336 16.54147,4.09057 16.54365,16.22681 0.0245,138.05784 9.3e-4,276.11564 0.0696,414.17348 0.006,10.80617 0.72895,21.6101 0.89825,32.41852 0.21552,13.75203 -4.96611,18.94524 -18.58184,18.94585 -111.33815,0.006 -222.67636,0.0345 -334.01442,-0.0704 -6.52515,-0.006 -12.42741,1.18523 -18.33822,4.01621 -21.88285,10.48054 -43.72587,10.69885 -65.12095,-1.48555 -4.33914,-2.47116 -8.87159,-2.46387 -13.53722,-2.46363 -111.12612,0.007 -222.25228,0.006 -333.37841,0.001 -2.54438,-8e-5 -5.10493,0.12458 -7.63012,-0.10941 -7.82761,-0.72491 -12.76232,-5.97007 -12.84643,-13.82743 -0.11801,-11.02651 -0.0365,-22.05527 -0.0405,-33.08302 -0.0313,-88.64495 -0.0113,-177.28994 -0.11941,-265.93474 -0.0428,-35.13818 -0.50458,-70.27598 -0.50649,-105.41396 -8.5e-4,-15.67758 0.57975,-31.3465 0.28616,-47.03911 -0.23723,-12.67961 5.10602,-17.39623 17.95401,-17.40862 9.11888,-0.009 18.24762,-0.20919 27.35302,0.15219 5.44661,0.21617 7.57524,-1.45973 7.38743,-7.17957 -0.3756,-11.43956 -0.16184,-22.90037 -0.0969,-34.35185 0.0518,-9.13139 3.59263,-13.50863 12.48498,-15.79415 25.80987,-6.63368 51.57804,-13.69279 78.15631,-16.3946 25.70517,-2.61305 51.46378,-3.30734 77.33485,-0.81885 27.90239,2.68386 55.17898,8.05961 82.09015,15.67196 12.65826,3.58063 24.98908,8.06849 37.62431,13.173 m 312.30605,0.38187 c -1.90594,-0.0763 -3.81754,-0.0828 -5.71688,-0.23939 -31.35912,-2.58579 -62.66233,-2.13207 -93.70481,3.16142 -50.2117,8.56223 -96.29333,27.88677 -138.94176,55.41101 -9.30355,6.00433 -17.15401,6.09694 -26.30358,0.0584 -16.46148,-10.86423 -33.63575,-20.62471 -51.69566,-28.60565 -55.48205,-24.51852 -113.50941,-34.35412 -174.04527,-30.08919 -24.79185,1.74665 -49.07001,6.12288 -73.21625,11.71113 -6.66737,1.54305 -9.04549,4.63761 -9.03249,11.815 0.23668,130.6348 0.17168,261.27019 0.17141,391.90542 0,3.18094 -0.003,6.36204 0.0123,9.5429 0.0216,4.40888 2.44892,6.10839 6.5786,5.59185 20.63841,-2.5806 41.3242,-3.05722 62.11646,-2.44927 29.68912,0.86804 59.06887,3.98522 88.08507,10.2845 55.87826,12.13104 109.20387,30.8352 157.55756,62.05019 5.0487,3.25938 9.15787,1.90484 13.50089,-0.83846 19.42364,-12.26905 40.34533,-21.47504 61.3095,-30.73237 62.93958,-27.79267 129.04333,-40.2526 197.47434,-41.32817 16.47312,-0.259 33.02065,0.70069 49.43591,2.62067 4.68474,0.548 6.89349,-0.99439 6.9216,-5.67121 0.0101,-1.69649 0.0298,-3.39296 0.0297,-5.08944 -0.009,-131.05923 -0.0181,-262.11843 -0.0295,-393.17767 -10e-4,-11.97089 -0.67784,-12.86422 -12.56113,-15.72326 -18.72677,-4.50555 -37.65048,-7.93028 -57.94613,-10.20842 M 305.76665,635.17334 c -9.04915,-0.89648 -18.08199,-2.03937 -27.15073,-2.64064 -22.40288,-1.48554 -44.81131,-2.26816 -67.21856,0.23121 -10.71422,1.19501 -21.45368,2.46628 -32.21287,2.86779 -9.98566,0.37271 -14.84493,-4.91197 -14.88267,-14.66736 -0.24589,-63.56399 -0.52122,-127.12787 -0.71363,-190.69202 -0.16624,-54.91155 -0.22179,-109.82343 -0.35607,-164.73505 -0.0376,-15.35858 -0.086,-15.35843 -15.61279,-15.32771 -9.15864,0.0181 -9.1843,0.0181 -9.18392,9.02047 0.006,135.4829 0.017,270.96585 0.034,406.44875 10e-4,8.62453 0.0271,8.65125 8.92649,8.61785 52.95202,-0.1985 105.90392,-0.43941 158.85605,-0.60826 39.22278,-0.12511 78.44582,-0.14484 117.6686,-0.27322 3.04592,-0.0101 6.28893,0.66542 11.12534,-2.46201 -42.22583,-17.77927 -84.21972,-30.03201 -129.27915,-35.7798 M 860.91952,469.31176 c -0.002,15.48129 -0.007,30.96257 -0.007,46.44385 -5.4e-4,34.14265 0.0429,68.28532 -0.0201,102.42781 -0.0236,12.81037 -6.72254,18.74386 -18.4968,17.36836 -12.38973,-1.44727 -24.82389,-2.98998 -37.27233,-3.36051 -26.45956,-0.78743 -52.87828,-0.89903 -79.33303,2.02314 -45.87869,5.0677 -89.6541,17.41363 -132.01263,35.32283 -1.38054,0.58364 -3.43163,0.67784 -3.58355,2.95191 1.72063,1.33574 3.69197,0.86176 5.52475,0.87155 46.86037,0.25054 93.7208,0.59497 140.58155,0.64405 45.33001,0.0474 90.6604,-0.21606 135.99063,-0.34303 14.11892,-0.0396 14.03186,-0.0396 14.02767,-14.39828 -0.0263,-90.06292 -0.008,-180.12593 -0.0101,-270.1889 -10e-4,-41.352 0.009,-82.704 -0.0367,-124.05597 -0.0186,-16.7392 0.14702,-14.66333 -14.97562,-14.71147 -10.1406,-0.0323 -10.3242,0.18635 -10.32738,10.33153 -0.0215,69.13355 -0.0285,138.2671 -0.0493,208.67313 z"
   id="path1"
   style="stroke-width:1.27244" />
<path
   fill="#5b21b6"
   opacity="1"
   stroke="none"
   d="m 207.88612,859.09797 c -12.43337,-35.53632 1.54089,-68.60559 34.80428,-80.59024 40.50613,-14.59421 82.62234,12.86993 83.07072,56.49856 0.27171,26.43759 -16.61089,53.46812 -47.75659,59.76322 -29.58797,5.9804 -57.23803,-6.35132 -70.11841,-35.67154 m 70.06614,-57.84936 c -5.10105,-1.47778 -10.25123,-2.39894 -15.61835,-2.14437 -19.57063,0.92879 -36.16036,17.85189 -32.47341,42.76129 2.14425,14.48681 9.69928,24.44886 23.64011,28.4893 13.70602,3.97256 26.59454,1.81577 36.73219,-9.22448 16.92327,-18.42978 11.79937,-48.84979 -12.28054,-59.88174 z"
   id="path2"
   style="stroke-width:1.27244" />
<path
   fill="#5b21b6"
   opacity="1"
   stroke="none"
   d="m 367.83023,860.63276 c 0.18818,9.62809 0.3133,18.73118 0.42378,27.83451 0.0471,3.87573 -1.60721,5.88969 -5.76461,5.65492 -3.5914,-0.20279 -7.2033,-0.0272 -10.80598,-0.0482 -8.05566,-0.0466 -8.64679,-0.33099 -8.70321,-8.64045 -0.23319,-34.33051 -0.24735,-68.66267 -0.39127,-102.99397 -0.015,-3.57896 0.51747,-6.35924 5.05011,-6.21262 15.85651,0.5129 31.79694,-1.35079 47.57234,1.29419 36.56917,6.13114 41.40544,44.17919 26.69806,63.00288 -2.66773,3.41431 -5.92087,6.11521 -9.67348,8.10091 -4.08274,2.16045 -3.97835,4.5559 -1.6639,8.09876 6.71909,10.28521 13.19584,20.72885 19.75359,31.11921 0.88528,1.40269 2.12122,2.71822 1.20258,5.4971 -8.34405,1.17621 -17.0765,1.025 -25.78269,0.0357 -2.20075,-0.25 -2.97459,-2.84637 -4.05632,-4.63931 -5.80077,-9.61481 -11.7675,-19.13729 -17.27885,-28.91597 -3.11139,-5.52049 -8.01635,-3.48617 -12.39688,-3.84373 -2.83052,-0.23105 -4.42196,1.12045 -4.18327,4.65609 m 19.35903,-27.36838 c 1.03385,-0.23083 2.0723,-0.443 3.10083,-0.69533 8.87759,-2.17838 13.30981,-7.58159 13.21732,-16.1008 -0.0933,-8.59021 -4.45327,-13.67997 -13.5489,-15.76981 -6.07601,-1.396 -12.24532,-0.53898 -18.37188,-0.68686 -2.99296,-0.0724 -4.06383,1.75123 -4.05986,4.49913 0.0115,8.05766 0.0467,16.11564 -0.0194,24.17276 -0.0262,3.19065 1.38594,4.69274 4.57255,4.66618 4.66443,-0.0389 9.32937,-0.009 15.10932,-0.0853 z"
   id="path3"
   style="stroke-width:1.27244" />
<path
   fill="#5b21b6"
   opacity="1"
   stroke="none"
   d="m 803.7213,894.02021 c -6.78849,1.0678 -10.34788,-2.00442 -13.23549,-7.18256 -5.05185,-9.05936 -10.53816,-17.87937 -15.95403,-26.73137 -2.35817,-3.85436 -10.18968,-5.72948 -14.0473,-3.58215 -2.54465,1.41649 -2.18661,3.90841 -2.19096,6.1838 -0.016,8.47215 -0.0433,16.94625 0.12418,25.41584 0.0827,4.19017 -1.30265,6.12943 -5.86367,6.03553 -22.19475,-0.45719 -19.17574,2.97165 -19.3104,-18.47008 -0.19168,-30.51173 0.0386,-61.02649 -0.23331,-91.53706 -0.0537,-6.01465 1.67886,-8.38859 7.89435,-8.0283 14.14096,0.81973 28.36036,-1.07783 42.48138,1.15756 19.05784,3.01685 30.47903,12.79545 34.45517,29.04825 4.20206,17.17628 -1.98779,34.9728 -17.90175,43.55717 -0.70968,0.38281 -1.24851,1.08225 -2.51225,2.21008 8.4532,13.30585 16.90128,26.6037 25.95739,40.85853 -7.04384,1.91767 -13.12583,0.678 -19.66331,1.06476 m -30.22958,-61.60672 c 1.47995,-0.0152 2.96123,0.004 4.43964,-0.0513 8.91646,-0.33915 14.26142,-4.96356 15.09017,-13.03248 1.07595,-10.47603 -2.65183,-16.12015 -11.99343,-18.46573 -5.85784,-1.4708 -11.77339,-0.81586 -17.6679,-0.74114 -3.9262,0.0497 -5.53375,2.26582 -5.32181,6.20857 0.21529,4.00573 -0.0231,8.03351 0.0527,12.0494 0.29939,15.85314 -2.55505,13.92041 15.40067,14.03271 z"
   id="path4"
   style="stroke-width:1.27244" />
<path
   fill="#5b21b6"
   opacity="1"
   stroke="none"
   d="m 840.90487,881.63172 c -4.29813,-5.47489 -6.81148,-11.16949 -7.33307,-17.73267 -0.27912,-3.51194 0.96956,-5.09939 4.6112,-4.98972 4.86755,0.14647 9.74584,0.11835 14.61456,-0.0156 3.15158,-0.0868 5.02754,0.9329 6.1111,4.16159 4.07679,12.1479 24.18169,12.3732 31.38972,4.37713 4.98305,-5.52771 4.27755,-12.13423 -2.08387,-16.15331 -6.01473,-3.8 -13.03216,-4.83402 -19.69577,-6.84332 -4.64963,-1.40198 -9.36909,-2.67116 -13.8568,-4.49362 -13.03201,-5.29214 -19.46728,-15.4631 -19.49035,-29.21102 -0.023,-13.65332 5.17037,-25.00679 18.35802,-30.8053 16.69493,-7.34067 33.33325,-7.23303 49.12146,2.72506 7.93675,5.00588 12.2525,12.6096 14.02836,21.793 0.84839,4.38713 -0.69494,6.4845 -5.10692,6.58221 -3.388,0.0752 -6.77769,0.11487 -10.16305,0.25598 -5.25137,0.21886 -9.17469,-0.0905 -11.75414,-6.52591 -3.37261,-8.41398 -21.16446,-8.89581 -26.64323,-1.52368 -3.56522,4.7972 -2.12565,10.96158 3.58751,14.74682 4.30924,2.85499 9.37243,3.79262 14.22361,5.25564 5.05698,1.52523 10.2049,2.8261 15.12426,4.71636 15.16907,5.82855 22.40009,15.75031 22.51441,30.38133 0.13661,17.48314 -6.2596,27.60906 -22.16601,33.8633 -19.14382,7.52714 -42.75492,4.59054 -55.391,-10.56426 z"
   id="path5"
   style="stroke-width:1.27244" />
<path
   fill="#5b21b6"
   opacity="1"
   stroke="none"
   d="m 102.59915,872.97659 c -7.06541,18.58875 -31.513352,25.75523 -47.812925,23.05658 -20.824195,-3.44779 -31.290593,-12.68393 -34.989638,-29.77378 -1.158252,-5.35108 0.421336,-7.67051 5.934682,-7.32568 2.533831,0.15844 5.095653,0.16504 7.627949,-0.007 5.723374,-0.38925 9.855828,0.0957 12.962956,6.7436 4.66155,9.97347 25.617158,9.64099 31.455053,0.29932 3.361234,-5.37859 1.847179,-11.36264 -3.832096,-14.60152 -6.146346,-3.5051 -13.053308,-4.88005 -19.759802,-6.80098 -2.845792,-0.81517 -5.733935,-1.5035 -8.535234,-2.44951 -18.492164,-6.24547 -24.659204,-15.39353 -23.883098,-35.29589 0.573499,-14.7069 10.469481,-26.0651 26.57732,-29.93695 15.629076,-3.75665 30.354263,-1.81149 43.156391,8.58462 6.155202,4.99851 9.729922,11.58305 10.107402,19.74462 0.18352,3.9679 -1.18352,5.97551 -5.386395,5.83875 -3.597528,-0.11697 -7.217891,-0.0853 -10.805509,0.18312 -4.791663,0.35857 -7.875721,-0.44252 -10.17373,-5.81241 -3.377074,-7.89138 -19.729255,-9.53567 -25.87169,-3.40469 -3.887562,3.8803 -3.469029,10.52659 0.923517,14.77214 3.681232,3.55816 8.511458,4.53834 13.171853,5.92953 6.078751,1.81469 12.248459,3.39894 18.183017,5.60878 19.027307,7.08524 26.349717,21.93528 20.949977,44.6475 z"
   id="path6"
   style="stroke-width:1.27244" />
<path
   fill="#5b21b6"
   opacity="1"
   stroke="none"
   d="m 656.99058,848.466 c -2.39095,2.44274 -5.0221,2.10568 -7.53087,2.12199 -8.26122,0.0535 -16.53323,0.28899 -24.78086,-0.0445 -5.745,-0.2323 -8.05137,1.79021 -7.81497,7.67073 0.39112,9.7272 0.10941,19.47972 0.38094,29.21406 0.13211,4.73825 -1.27881,6.90258 -6.47659,6.75082 -21.11484,-0.61649 -18.39507,3.28214 -18.52243,-17.83829 -0.18391,-30.50241 -0.11875,-61.00646 -0.11774,-91.5098 2.3e-4,-7.36685 0.84793,-7.78507 8.01246,-7.72721 17.14204,0.13855 34.29045,0.13971 51.42915,-0.18337 11.50755,-0.21691 12.54864,0.52346 11.81262,11.69978 -0.80265,12.18626 -0.80219,12.14735 -13.27944,12.05407 -8.68458,-0.065 -17.37216,0.11143 -26.05425,-0.048 -4.61057,-0.0846 -6.56505,1.79635 -6.36149,6.4258 0.19533,4.43877 0.17645,8.9045 -0.0702,13.34048 -0.26655,4.79744 1.39903,6.92929 6.53188,6.7589 9.09868,-0.3018 18.21986,0.10403 27.32201,-0.14104 4.74688,-0.12775 6.48739,1.73998 6.18847,6.34728 -0.31477,4.85079 -0.27105,9.7248 -0.66876,15.10828 z"
   id="path7"
   style="stroke-width:1.27244" />
<path
   fill="#5b21b6"
   opacity="1"
   stroke="none"
   d="m 438.79334,790.0236 c -2.18886,-4.11454 -4.83649,-7.51052 -5.55949,-12.13787 4.49558,-2.98236 9.5079,-0.74844 14.13021,-1.50745 10.12995,-1.66332 15.9998,2.36664 19.58774,12.13352 3.63573,9.89697 8.90773,19.19291 13.46207,28.7525 0.88641,1.86051 1.46578,3.94212 3.4923,5.15064 3.18618,-1.8459 3.8194,-5.13674 5.09133,-7.92222 4.92608,-10.78776 9.82545,-21.59068 14.5009,-32.48834 1.65847,-3.8657 4.26796,-5.52219 8.318,-5.50137 5.72046,0.0295 11.44193,-0.0226 17.16207,-0.10201 5.24936,-0.073 6.41936,2.01094 3.91502,6.63814 -7.7606,14.33908 -14.68732,29.18756 -23.28312,43.00111 -9.7505,15.66899 -14.08136,31.79978 -12.82194,50.41571 1.39208,20.5764 2.31581,17.21986 -17.79805,17.68041 -4.86768,0.11142 -6.94949,-1.57712 -6.79055,-6.59806 0.24118,-7.62026 -0.44649,-15.29257 0.14585,-22.87354 0.76099,-9.73985 -1.97596,-18.12805 -6.81478,-26.44689 -9.15633,-15.74139 -17.70063,-31.83892 -26.73756,-48.19423 z"
   id="path8"
   style="stroke-width:1.27244" />
<path
   fill="#5b21b6"
   opacity="1"
   stroke="none"
   d="m 144.00395,859.31403 c -1.5e-4,-17.36788 -0.21366,-34.10359 0.11249,-50.82889 0.11618,-5.95865 -2.14486,-7.97379 -7.78546,-7.6838 -5.70503,0.2935 -11.4383,10e-4 -17.14987,0.21592 -4.46601,0.16752 -6.68711,-1.47157 -6.70324,-6.18412 -0.0735,-21.45958 -1.78929,-18.03392 16.90774,-18.18762 20.5419,-0.16892 41.08602,-0.0891 61.62917,-0.0793 8.56909,0.004 8.56753,0.049 8.593,8.31434 0.007,2.32968 0.0198,4.65934 0.0405,6.98894 0.0788,8.91414 0.0453,8.95266 -9.21764,9.04694 -4.87086,0.0495 -9.75759,0.34436 -14.60853,0.0527 -5.32878,-0.32059 -6.94224,1.88186 -6.9025,7.0645 0.19488,25.41375 0.0906,50.8299 0.0835,76.2452 -0.002,9.87654 -0.0154,10.01331 -9.65944,9.83422 -16.92177,-0.31399 -15.159,2.83347 -15.30435,-15.10159 -0.0515,-6.35341 -0.0261,-12.70746 -0.0354,-19.69748 z"
   id="path9"
   style="stroke-width:1.27244" />
<path
   fill="#5b21b6"
   opacity="1"
   stroke="none"
   d="m 998.14904,800.66397 c -15.75365,0.44811 -13.42187,-0.28534 -13.48362,13.32899 -0.10963,24.17198 -0.18616,48.34614 0.0609,72.51603 0.0584,5.71495 -1.52786,7.92175 -7.52458,7.69102 -18.6877,-0.71917 -17.13808,3.26551 -17.28323,-17.44113 -0.16053,-22.89838 -0.29116,-45.80018 -0.024,-68.69576 0.0694,-5.94227 -2.23679,-8.15692 -7.72915,-7.96696 -5.71666,0.1975 -11.43541,0.37124 -17.14655,0.67979 -4.28516,0.23152 -6.12159,-1.4784 -6.01822,-5.93496 0.50357,-21.71945 -3.20867,-18.31817 17.70378,-18.47847 20.14187,-0.1544 40.28592,-0.045 60.42893,-0.0151 8.8436,0.013 9.2485,0.25637 9.0673,8.77333 -0.3651,17.14165 3.7572,14.75218 -15.5398,15.53402 -0.6351,0.0257 -1.27216,0.007 -2.51175,0.009 z"
   id="path10"
   style="stroke-width:1.27244" />
<path
   fill="#5b21b6"
   opacity="1"
   stroke="none"
   d="m 708.0899,835.1377 c 0.092,17.35079 0.0538,34.06786 0.36315,50.77841 0.10807,5.83733 -1.67147,8.30944 -7.97821,8.25197 -16.95418,-0.15455 -16.92824,0.0954 -17.05513,-16.55334 -0.23377,-30.65239 -0.53254,-61.3043 -0.74061,-91.95676 -0.0552,-8.12687 0.23524,-8.31768 8.04927,-8.29267 1.48112,0.004 2.96218,0.0278 4.4433,0.0317 12.84235,0.0341 12.83101,0.0333 12.84414,13.30881 0.0144,14.59856 0.0526,29.19704 0.0741,44.43183 z"
   id="path11"
   style="stroke-width:1.27244" />
<path
   fill="#5b21b6"
   opacity="1"
   stroke="none"
   d="m 501.53468,266.94797 c 7.85178,-5.0738 14.99256,-4.31486 22.44126,0.15866 39.40661,23.66698 78.92054,47.15507 118.38067,70.73308 6.72899,4.02071 10.15061,10.03727 10.15411,17.88815 0.02,45.35874 -9.3e-4,90.71747 0.029,136.07622 0.006,7.78759 -3.73103,13.31451 -10.20607,17.11319 -19.73235,11.57636 -39.48048,23.1269 -59.29103,34.56879 -19.62921,11.33709 -39.35846,22.50097 -59.00903,33.80132 -7.00067,4.02593 -13.94805,5.9095 -21.50975,1.26794 -36.66634,-22.50649 -74.76781,-42.50923 -111.97422,-64.07482 -2.56642,-1.48749 -5.05192,-3.11626 -7.63551,-4.57197 -6.8895,-3.88175 -10.10286,-9.45519 -10.05696,-17.63727 0.21882,-38.99825 -7.4e-4,-77.99884 0.14007,-116.99779 0.0268,-7.40227 -1.07879,-14.74962 -0.29082,-22.20508 0.71229,-6.73905 3.83118,-11.27084 9.47837,-14.79062 35.42682,-22.08124 71.60069,-42.90644 107.50603,-64.18297 3.82682,-2.26774 7.62112,-4.59046 11.84383,-7.14683 m 14.86775,102.77466 c -1.4819,-1.70728 -1.88163,-4.32124 -5.52009,-5.70051 -17.69038,29.84872 -35.46476,59.83914 -53.2102,89.78067 2.9886,2.47315 5.63317,1.72343 8.06764,1.72444 29.21622,0.0121 58.43265,-0.0196 87.64857,-0.13715 3.67402,-0.0148 8.52682,1.47945 10.54103,-2.2159 1.99253,-3.65574 -1.75186,-7.08967 -3.64242,-10.26211 -14.40868,-24.17777 -28.94083,-48.28206 -43.88453,-73.18944 m -21.10657,155.92552 c 4.02355,5.97609 8.02726,11.96574 12.07616,17.92458 4.29484,6.3208 5.63974,6.36305 9.89935,0.2017 13.25382,-19.17108 26.48589,-38.35719 39.68503,-57.56589 1.24898,-1.81767 3.33969,-3.41339 2.28889,-6.44347 -0.87891,-0.24798 -1.85817,-0.76693 -2.83649,-0.76506 -28.82675,0.0549 -57.65392,0.0952 -86.47962,0.31916 -5.42176,0.042 -6.14113,2.00612 -2.80571,6.72678 9.17121,12.98029 18.41234,25.91114 28.17239,39.6022 m 77.91132,-105.9027 c 3.96774,5.93061 6.72798,12.64656 11.28582,18.01435 1.61609,-0.2736 2.01125,-1.30909 2.43879,-2.23834 10.18292,-22.13246 20.3535,-44.27063 30.51608,-66.41249 2.21318,-4.82201 -0.94959,-5.29704 -4.50681,-5.6857 -22.26783,-2.43289 -44.52433,-4.97074 -66.7979,-7.34961 -3.03354,-0.32401 -6.36258,-0.87628 -9.49801,2.70242 11.95956,19.9564 24.01362,40.07047 36.56203,60.96937 m -128.34479,10.30734 c 14.26947,-24.23746 29.27157,-48.0631 43.38955,-74.10153 -5.82041,0 -9.6385,-0.3621 -13.36775,0.0603 -20.3532,2.30563 -40.69411,4.72838 -61.01865,7.27509 -7.78914,0.97604 -8.06042,1.64871 -4.99602,8.66635 8.7227,19.97564 17.44971,39.94948 26.25015,59.89086 0.88742,2.01094 1.31958,4.58688 4.16917,5.18493 2.85386,-1.12496 3.72144,-3.88166 5.57355,-6.97605 m 89.90198,-127.19213 c -6.79478,-3.00111 -8.96641,-1.79224 -9.46361,5.25168 -0.35756,5.06708 -0.72413,10.1335 -1.10267,15.19905 -0.28292,3.78552 0.57456,6.95159 4.96977,7.42533 17.43383,1.87923 34.87821,3.66312 52.32531,5.41555 1.75302,0.17614 3.89886,0.82464 5.02785,-2.40721 -16.36571,-11.01921 -34.10335,-19.98133 -51.75665,-30.8844 m -39.95107,27.15616 c 2.89937,-0.57901 4.46581,-2.32979 4.41664,-5.30247 -0.10156,-6.13402 0.051,-12.29817 -0.52372,-18.39126 -0.59941,-6.35574 -2.62712,-7.15439 -8.22379,-3.91769 -16.29461,9.42353 -32.59082,18.84461 -48.83099,28.36131 -2.00406,1.17442 -4.61736,1.95831 -5.73102,5.87873 19.8097,-2.16848 38.83403,-4.25103 58.89288,-6.62862 m 134.11673,98.5775 c 0,-7.89077 0,-15.78153 0,-23.67234 -10.21788,16.83181 -17.88552,34.40617 -25.73807,51.88915 -1.34816,3.00189 0.0179,5.21743 2.67232,6.93054 4.79028,3.09146 9.43511,6.41076 14.26143,9.44267 2.05319,1.28971 4.15981,3.67849 6.83889,2.25927 2.68856,-1.42428 1.91946,-4.46806 1.93118,-6.91621 0.0618,-12.88682 0.0213,-25.77406 0.0342,-39.93308 m -228.1539,46.41142 c 5.17473,-3.30004 10.30564,-6.67157 15.53814,-9.87724 4.06856,-2.49265 5.24287,-5.44488 3.19578,-10.08969 -6.57029,-14.90774 -12.81253,-29.95977 -19.26948,-44.91812 -0.69007,-1.59862 -1.16813,-3.61694 -3.40423,-4.17915 -0.2446,0.69281 -0.60033,1.2757 -0.64219,1.88039 -1.49191,21.56529 -0.43034,43.1557 -0.56531,64.73466 -0.0168,2.67981 1.64561,3.76104 5.14729,2.44915 m 62.23317,53.28714 c 1.47765,0.62875 2.95054,1.91137 4.49166,0.0483 0,-0.43149 0.1582,-0.93949 -0.0228,-1.24983 -8.75045,-15.00859 -19.47613,-28.61759 -30.07774,-42.31103 -1.76646,-2.28163 -3.9325,-2.00356 -6.17984,-0.55374 -4.26143,2.7494 -8.60407,5.37408 -12.84073,8.16046 -6.65984,4.38018 -6.55926,6.54645 0.40785,10.5552 14.47368,8.32782 28.95652,16.63975 44.22152,25.35061 m 143.86104,-26.39821 c 4.80365,-2.77527 4.36477,-5.66944 0.11223,-8.51546 -3.50712,-2.34714 -7.05992,-4.63053 -10.65395,-6.84235 -7.10225,-4.37093 -8.68053,-4.18738 -13.39548,2.52713 -8.1281,11.57525 -16.05778,23.29012 -24.02885,34.97494 -0.98726,1.44719 -2.77772,2.90784 -0.0974,5.63131 15.64562,-9.03142 31.47609,-18.16945 48.06345,-27.77557 z"
   id="path12"
   style="stroke-width:1.27244" />
</svg>
